<?xml version="1.0" encoding="utf-8"?>
<!-- Generator: Adobe Illustrator 23.0.1, SVG Export Plug-In . SVG Version: 6.00 Build 0)  -->
<svg version="1.1" id="Camada_1" xmlns="http://www.w3.org/2000/svg" xmlns:xlink="http://www.w3.org/1999/xlink" x="0px" y="0px"
	 viewBox="0 0 300 88" style="enable-background:new 0 0 300 88;" xml:space="preserve">
<style type="text/css">
	.st0{fill:#969696;}
</style>
<g id="Grupo_15" transform="translate(-792.307 -243.622)">
	<path id="Caminho_66" class="st0" d="M830.1,297.3c-0.3,1.3-1.5,5.6-1.9,6.9h-19.4v-1.2c3.8-0.4,4.1-0.6,4.1-4.1v-16.6
		c0-3.6-0.4-3.8-3.8-4.1v-1.2h11.2v1.2c-3.3,0.3-3.8,0.5-3.8,4.1v17c0,2.5,0.3,3.1,2.7,3.2c0,0,3,0,3.3,0c2.1,0,2.8-0.3,3.7-1.3
		c1.1-1.3,2-2.7,2.5-4.3L830.1,297.3z"/>
	<path id="Caminho_67" class="st0" d="M852,302.8c-2.2,0.3-4.3,0.8-6.4,1.5V301c-2.3,1.9-4.1,3.2-6.4,3.2c-2.8,0-5.2-1.7-5.2-6.3
		v-8.1c0-2.3-0.3-2.5-1.4-2.7l-1.2-0.2v-1.1c2-0.1,4-0.4,6-0.8c-0.1,1.3-0.1,3.3-0.1,6.1v5.7c0,3.7,1.9,4.7,3.8,4.7
		c1.7-0.1,3.3-0.8,4.5-2v-9.7c0-2.3-0.5-2.5-1.9-2.8l-1.3-0.2v-1.1c2.2-0.1,4.4-0.4,6.6-0.8v14c0,2.1,0.3,2.4,1.9,2.5l1.2,0V302.8z"
		/>
	<path id="Caminho_68" class="st0" d="M854,304.2v-1.2c2.6-0.3,2.9-0.5,2.9-3.3v-8.6c0-2.6-0.1-2.8-2.6-3.2v-1c2-0.3,4-0.9,5.9-1.7
		v14.5c0,2.8,0.3,3,3,3.3v1.2L854,304.2z M858.3,281.2c-1.2,0-2.2-1-2.2-2.2c0-1.2,1-2.3,2.2-2.3c0,0,0,0,0,0c1.2,0,2.2,1,2.1,2.2
		c0,0,0,0,0,0.1C860.5,280.2,859.6,281.2,858.3,281.2L858.3,281.2z"/>
	<path id="Caminho_69" class="st0" d="M881.3,298.9c-0.5,1.6-1.4,4-1.8,5.3h-14l-0.3-0.7c3.6-5.3,7.2-10.8,10.6-16.2h-4.1
		c-3,0-3.5,0.5-5.1,4.1l-1.2-0.4c0.5-2,1-4,1.3-6h0.9c0.3,0.6,0.8,0.9,2.3,0.9h9.9l0.3,0.6c-3.3,5-7,10.7-10.4,16.3h4.5
		c3.2,0,4.1-0.8,6-4.3L881.3,298.9z"/>
	<path id="Caminho_70" class="st0" d="M918.4,296.9c-0.6,2.1-1.4,4.3-2.3,6.3c-2.5,0.6-5.1,0.9-7.6,1c-10,0-15.1-6.6-15.1-14
		c0-8.5,6.5-14.4,15.8-14.4c2.7,0.1,5.3,0.4,7.9,1c0.2,1.9,0.5,4.4,0.8,6.5l-1.3,0.3c-0.8-2.8-1.8-4.5-4-5.4
		c-1.4-0.6-2.9-0.8-4.4-0.8c-6.9,0-10.5,5.1-10.5,12c0,8.1,4.2,13.2,10.9,13.2c4.3,0,6.3-2,8.5-6.1L918.4,296.9z"/>
	<path id="Caminho_71" class="st0" d="M924.6,304.2c-1.4,0-2.5-1.1-2.6-2.4c0-0.1,0-0.2,0-0.2c-0.1-1.4,1-2.6,2.4-2.7
		c0.1,0,0.1,0,0.2,0c1.4,0,2.6,1.1,2.6,2.6c0,0,0,0.1,0,0.1c0.1,1.4-1,2.6-2.4,2.7C924.7,304.2,924.7,304.2,924.6,304.2z"/>
	<path id="Caminho_72" class="st0" d="M962.6,283.6c-0.3-1.1-0.7-2.1-1.3-3.1c-0.8-1.4-1.4-1.8-3.8-1.8h-4.5c-1.2,0-1.3,0.1-1.3,1.3
		v9.7h5.2c3,0,3.2-0.5,3.8-3.4h1.3v8.7h-1.3c-0.5-2.9-0.8-3.6-3.8-3.6h-5.2v7.5c0,3.6,0.4,3.8,4.2,4.1v1.2h-11.6v-1.2
		c3.4-0.3,3.8-0.5,3.8-4.1v-16.5c0-3.6-0.4-3.8-3.8-4.1v-1.2h13.2c3.8,0,5.2,0,5.9-0.1c0,1.5,0.2,4.4,0.4,6.4L962.6,283.6z"/>
	<path id="Caminho_73" class="st0" d="M975.8,284.9c5.2,0,9.1,4,9.1,9.4c0,6.8-5,10-9.1,10c-5.1,0.1-9.2-4-9.3-9.1
		c0-0.1,0-0.2,0-0.2C966.5,288.1,971.8,284.9,975.8,284.9z M975.3,286.3c-2.5,0-4.8,2.5-4.8,7.3c0,5.3,2.3,9.2,5.8,9.2
		c2.6,0,4.8-1.9,4.8-7.6C981,290.3,979,286.3,975.3,286.3L975.3,286.3z"/>
	<path id="Caminho_74" class="st0" d="M999.6,304.2v-1.2c2.4-0.3,2.7-0.5,2.7-3.4v-6.9c0-2.9-1-4.9-3.8-4.9
		c-1.8,0.1-3.4,0.9-4.6,2.2v9.8c0,2.9,0.3,3,2.7,3.2v1.2h-9v-1.2c2.8-0.3,3-0.5,3-3.2v-8.6c0-2.7-0.3-2.8-2.5-3.2v-1.1
		c2-0.3,4-0.9,5.8-1.7v3.3c0.8-0.6,1.8-1.2,2.8-1.9c1-0.7,2.2-1.2,3.5-1.3c3.3,0,5.4,2.5,5.4,6.5v7.9c0,2.8,0.3,3,2.7,3.2v1.2
		L999.6,304.2z"/>
	<path id="Caminho_75" class="st0" d="M1021.2,290.3c-0.8-2.4-1.8-4.1-4.4-4.1c-1.4,0-2.6,1.1-2.6,2.5c0,0.1,0,0.2,0,0.2
		c0,1.8,1.2,2.6,3.6,3.7c3.6,1.7,5.4,3,5.4,5.7c0,3.8-3.5,5.8-6.8,5.8c-1.7,0-3.4-0.4-5-1.2c-0.2-1.2-0.6-3.5-0.8-4.9l1.2-0.2
		c0.8,2.7,2.2,4.8,5.1,4.8c1.5,0.1,2.8-1.1,2.9-2.6c0-0.1,0-0.1,0-0.2c0-1.9-1.1-2.8-3.3-3.9c-2.9-1.4-5.3-2.8-5.3-5.8
		c0-3,2.6-5.4,6.5-5.4c1.4,0.1,2.7,0.2,4,0.5c0.1,1,0.4,3.6,0.6,4.6L1021.2,290.3z"/>
	<path id="Caminho_76" class="st0" d="M1041.4,300.2c-2.7,3.3-5.6,4.1-6.9,4.1c-5.1,0-8.2-4.2-8.2-9c0-2.7,0.9-5.3,2.7-7.3
		c1.6-1.8,3.8-3,6.2-3.1c3.5,0.1,6.4,2.9,6.4,6.5c0,0.8-0.2,1.2-0.8,1.4c-0.8,0.2-6.2,0.5-11.2,0.7c-0.1,5.6,3.3,7.9,6.3,7.9
		c1.8-0.1,3.6-0.8,4.8-2.1L1041.4,300.2z M1034.2,286.5c-1.9,0-3.8,1.8-4.4,5.2c2.3,0,4.7,0,7.1-0.1c0.8,0,1-0.2,1-0.8
		C1038,288.5,1036.5,286.5,1034.2,286.5L1034.2,286.5z"/>
	<path id="Caminho_77" class="st0" d="M1060.3,300c-1.8,2.4-4.6,4.3-7.1,4.3c-5.3,0-8.4-4.3-8.4-8.8c0-3.3,1.6-6.3,4.2-8.2
		c1.8-1.4,4-2.3,6.3-2.4c1.4-0.1,2.8,0.3,3.9,1.1c0.4,0.2,0.7,0.7,0.7,1.2c-0.1,0.9-0.7,1.6-1.5,1.9c-0.2,0-0.4-0.1-0.8-0.4
		c-1.1-1.1-2.6-1.7-4.2-1.8c-2.8,0-5.2,2.3-5.2,6.7c0,5.8,3.9,7.7,6.3,7.7c1.8,0,3.2-0.5,5.1-2.3L1060.3,300z"/>
	<path id="Caminho_78" class="st0" d="M1075.8,304.2c-0.7,0-1.4-0.3-2-0.8c-0.5-0.5-0.8-1.2-1-1.9c-1.7,1.1-3.7,2.7-5,2.7
		c-2.8,0-5.1-2.3-5.1-5.1c0-2,1.1-3.4,3.4-4.2c2.5-0.9,5.7-2,6.6-2.7v-0.8c0-3-1.5-4.7-3.7-4.7c-0.8,0-1.5,0.3-2,1
		c-0.5,0.8-0.9,1.8-1.1,2.7c-0.1,0.6-0.6,1-1.2,1c-1-0.1-1.8-0.9-1.8-1.8c0-0.6,0.5-1.1,1.4-1.7c1.8-1.4,3.8-2.3,6-2.9
		c3-0.1,5.6,2.3,5.7,5.3c0,0.2,0,0.4,0,0.7v8.1c0,1.9,0.7,2.5,1.5,2.5c0.5,0,1-0.2,1.5-0.5l0.4,1.2L1075.8,304.2z M1072.7,293.7
		c-0.9,0.5-2.9,1.3-3.9,1.8c-1.6,0.7-2.5,1.5-2.5,3.1c-0.1,1.7,1.2,3.1,2.9,3.2c0,0,0.1,0,0.1,0c1.3-0.1,2.5-0.6,3.4-1.5
		L1072.7,293.7z"/>
</g>
</svg>
