<?xml version="1.0" encoding="utf-8"?>
<!-- Generator: Adobe Illustrator 23.0.1, SVG Export Plug-In . SVG Version: 6.00 Build 0)  -->
<svg version="1.1" id="Camada_1" xmlns="http://www.w3.org/2000/svg" xmlns:xlink="http://www.w3.org/1999/xlink" x="0px" y="0px"
	 viewBox="0 0 1214 1080" style="enable-background:new 0 0 1214 1080;" xml:space="preserve">
<style type="text/css">
	.st0{fill:#A3A3A3;}
	.st1{fill:#0F0F0F;}
	.st2{fill:#969696;}
	.st3{fill:#D3D3D3;}
	.st4{font-family:'Ambit-Black';}
	.st5{font-size:18.2603px;}
	.st6{letter-spacing:3;}
	.st7{font-size:18.5066px;}
	.st8{opacity:0.3;fill:#999999;}
	.st9{fill:url(#SVGID_1_);}
	.st10{fill:url(#SVGID_2_);}
	.st11{fill:url(#SVGID_3_);}
	.st12{fill:url(#SVGID_4_);}
	.st13{fill:url(#SVGID_5_);}
	.st14{fill:url(#SVGID_6_);}
	.st15{fill:url(#SVGID_7_);}
	.st16{fill:#A3A3A3;stroke:#A3A3A3;stroke-width:2;stroke-miterlimit:10;}
</style>
<g>
	<path class="st0" d="M51.2,42c11.4,0,22.8,0,34.2,0c1,0,1.3,0.2,1.3,1.3c0,22.6,0,45.3,0,67.9c0,0.9-0.2,1.2-1.1,1.2
		c-22.9,0-45.8,0-68.6,0c-0.9,0-1.1-0.2-1.1-1.1c0-22.7,0-45.4,0-68.1c0-0.9,0.3-1.1,1.2-1.1C28.4,42,39.8,42,51.2,42z M51.3,47.8
		c-9.5,0-19,0-28.5,0c-0.8,0-1.1,0.2-1.1,1.1c0,18.9,0,37.7,0,56.6c0,0.9,0.3,1.1,1.1,1.1c19,0,37.9,0,56.9,0c1,0,1.2-0.3,1.2-1.2
		c0-18.8,0-37.5,0-56.3c0-1-0.3-1.2-1.3-1.2C70.2,47.8,60.7,47.8,51.3,47.8z"/>
	<path class="st1" d="M51.3,47.8c9.4,0,18.9,0,28.3,0c1,0,1.3,0.2,1.3,1.2c0,18.8,0,37.5,0,56.3c0,0.9-0.2,1.2-1.2,1.2
		c-19,0-37.9,0-56.9,0c-0.9,0-1.1-0.2-1.1-1.1c0-18.9,0-37.7,0-56.6c0-0.9,0.3-1.1,1.1-1.1C32.3,47.8,41.8,47.8,51.3,47.8z
		 M46.3,60.6C46.3,60.6,46.3,60.6,46.3,60.6c-1.2,0-2.4,0-3.6,0c-0.6,0-0.9,0.2-0.8,0.9c0.1,0.8,0,1.6-0.2,2.4
		c-1.2,4.2-2.4,8.4-3.7,12.6c-1.6,5.4-3.2,10.8-4.8,16.2c-0.2,0.6-0.1,1,0.7,1c1.5,0,3.1,0,4.6,0c0.8,0,1.2-0.3,1.3-1.1
		c0.5-2.1,1-4.1,1.5-6.2c0.1-0.6,0.4-0.9,1.1-0.9c2.6,0,5.1,0,7.7,0c0.6,0,0.8,0.2,0.9,0.7c0.6,2.2,1.3,4.3,2,6.5
		c0.2,0.6,0.5,0.9,1.2,0.9c1.7,0,3.4,0,5.1,0c0.6,0,1-0.1,0.7-0.9c-1.4-4.4-2.7-8.9-4.1-13.4c-1.8-6-3.6-12-5.4-18
		c-0.2-0.5-0.4-0.7-0.9-0.7C48.7,60.6,47.5,60.6,46.3,60.6z M63,81.9c0,3.6,0,7.2,0,10.9c0,0.7,0.3,1,1,1c1.4,0,2.9,0,4.3,0
		c0.7,0,1-0.3,1-1c0-7.2,0-14.5,0-21.7c0-0.7-0.3-0.9-0.9-0.9c-1.4,0-2.8,0.1-4.2,0c-0.9,0-1.1,0.2-1.1,1.1C63,74.8,63,78.3,63,81.9
		z M66.3,60.8c-1.9,0-3.3,1.3-3.4,3.1c0,1.7,1.4,3.1,3.2,3.2c1.7,0.1,3.3-1.4,3.3-3.1C69.5,62.3,68.1,60.8,66.3,60.8z"/>
	<path class="st0" d="M46.3,60.6c1.2,0,2.4,0,3.6,0c0.5,0,0.7,0.2,0.9,0.7c1.8,6,3.6,12,5.4,18c1.3,4.5,2.7,8.9,4.1,13.4
		c0.3,0.8,0,0.9-0.7,0.9c-1.7,0-3.4,0-5.1,0c-0.7,0-1-0.3-1.2-0.9c-0.6-2.2-1.3-4.3-2-6.5c-0.2-0.6-0.4-0.7-0.9-0.7
		c-2.6,0-5.1,0-7.7,0c-0.7,0-1,0.3-1.1,0.9c-0.5,2.1-1.1,4.1-1.5,6.2c-0.2,0.8-0.5,1.1-1.3,1.1c-1.5,0-3.1,0-4.6,0
		c-0.8,0-0.9-0.3-0.7-1c1.6-5.4,3.2-10.8,4.8-16.2c1.2-4.2,2.5-8.4,3.7-12.6c0.2-0.8,0.3-1.6,0.2-2.4c-0.1-0.7,0.2-0.9,0.8-0.9
		C43.9,60.6,45.1,60.6,46.3,60.6C46.3,60.6,46.3,60.6,46.3,60.6z M46.2,67c-0.1,0.1-0.1,0.1-0.1,0.1c-1,3.9-1.9,7.8-2.9,11.7
		c-0.2,0.6,0.1,0.7,0.6,0.7c1.7,0,3.4,0,5.1,0c0.8,0,0.8-0.3,0.6-0.9c-1-3.6-1.9-7.2-2.9-10.9C46.6,67.5,46.6,67.2,46.2,67z"/>
	<path class="st0" d="M63,81.9c0-3.6,0-7.1,0-10.7c0-0.9,0.3-1.1,1.1-1.1c1.4,0.1,2.8,0,4.2,0c0.7,0,0.9,0.2,0.9,0.9
		c0,7.2,0,14.5,0,21.7c0,0.7-0.3,1-1,1c-1.4,0-2.9,0-4.3,0c-0.7,0-1-0.3-1-1C63,89.1,63,85.5,63,81.9z"/>
	<path class="st0" d="M66.3,60.8c1.8,0,3.2,1.4,3.2,3.2c0,1.7-1.6,3.2-3.3,3.1c-1.8-0.1-3.3-1.5-3.2-3.2
		C62.9,62.1,64.3,60.8,66.3,60.8z"/>
	<path class="st1" d="M46.2,67c0.4,0.1,0.4,0.5,0.5,0.8c1,3.6,1.9,7.2,2.9,10.9c0.2,0.6,0.2,0.9-0.6,0.9c-1.7,0-3.4,0-5.1,0
		c-0.5,0-0.8-0.1-0.6-0.7c1-3.9,1.9-7.8,2.9-11.7C46.1,67.1,46.2,67.1,46.2,67z"/>
</g>
<path class="st0" d="M53,266.3c-10.9,0-21.8,0-32.7,0c-3.8,0-3.8,0-3.8-3.8c0-21.5,0-43,0-64.5c0-1.8,0.4-2.4,2.3-2.4
	c22.4,0.1,44.8,0,67.2,0c2.6,0,2.6,0,2.6,2.5c0,22,0,43.9,0.1,65.9c0,1.9-0.5,2.4-2.4,2.4C75.2,266.3,64.1,266.3,53,266.3z
	 M52.4,260.8c9.6,0,19.1,0,28.7,0c1.4,0,1.9-0.3,1.9-1.8c-0.1-18.7-0.1-37.3,0-56c0-1.5-0.4-1.9-1.9-1.9c-18.9,0.1-37.8,0.1-56.7,0
	c-1.6,0-2,0.4-2,2c0,18.6,0,37.2,0,55.8c0,1.6,0.5,1.9,2,1.9C33.6,260.8,43,260.8,52.4,260.8z"/>
<path class="st1" d="M52.4,260.8c-9.4,0-18.8,0-28.3,0c-1.5,0-2-0.2-2-1.9c0.1-18.6,0.1-37.2,0-55.8c0-1.6,0.4-2.1,2-2
	c18.9,0.1,37.8,0.1,56.7,0c1.5,0,1.9,0.4,1.9,1.9c0,18.7,0,37.3,0,56c0,1.5-0.5,1.8-1.9,1.8C71.5,260.8,62,260.8,52.4,260.8z
	 M33.9,229.9C33.9,229.9,33.9,229.9,33.9,229.9c0,3.4,0,6.9,0,10.3c0,4.8,0,4.8,4.9,4.4c1-0.1,1.2-0.4,1.2-1.3c0-2,0.1-4,0-6
	c-0.1-1.7,0.4-2.3,2.1-2.2c3.5,0.2,6.5-0.9,8.9-3.6c2.6-2.8,3.1-6.2,2-9.8c-0.9-3-3-5.1-6.1-5.8c-3.7-0.8-7.5-0.8-11.4-0.5
	c-1.2,0.1-1.7,0.4-1.6,1.7C34,221.3,33.9,225.6,33.9,229.9z M55.9,238.3c-0.3,5.2-0.2,5.4,4.8,6.3c1.6,0.3,3.2,0.1,4.8-0.2
	c3.2-0.7,5.3-2.8,5.6-5.8c0.4-3.3-0.9-5.5-4.1-7c-1.3-0.6-2.6-1.1-3.9-1.7c-0.8-0.3-1.2-1-1-1.9c0.2-0.9,0.9-1.2,1.7-1.3
	c1.8-0.2,3.5,0.3,5.1,1.1c0.3,0.1,0.7,0.5,1.1,0.2c0.5-0.4,0.1-4.5-0.5-4.9c-2.8-1.5-9-1.9-12.1,1.3c-2.9,3-2.5,7.1,1.1,9.2
	c1.4,0.8,2.8,1.4,4.2,2.1c1.2,0.6,2.2,1.4,1.7,2.8c-0.5,1.2-1.8,1.6-3.2,1.4C59.4,239.7,57.7,239.1,55.9,238.3z"/>
<path class="st0" d="M33.9,229.9c0-4.3,0-8.6,0-12.8c0-1.3,0.4-1.6,1.6-1.7c3.8-0.2,7.6-0.3,11.4,0.5c3.1,0.7,5.2,2.8,6.1,5.8
	c1.1,3.6,0.6,7-2,9.8c-2.4,2.6-5.4,3.7-8.9,3.6c-1.7-0.1-2.3,0.5-2.1,2.2c0.2,2,0,4,0,6c0,0.9-0.2,1.2-1.2,1.3
	c-4.9,0.4-4.9,0.4-4.9-4.4C33.9,236.8,33.9,233.4,33.9,229.9C33.9,229.9,33.9,229.9,33.9,229.9z M40,224.9c0,1.4,0,2.7,0,4.1
	c0,0.6,0.1,0.9,0.8,1.1c3.1,0.6,6.1-1.2,6.5-4.1c0.5-3.4-1.5-5.7-5-5.9c-1.7-0.1-2.5,0.3-2.3,2.2C40.1,223.1,40,224,40,224.9z"/>
<path class="st0" d="M55.9,238.3c1.8,0.8,3.5,1.4,5.3,1.7c1.4,0.2,2.7-0.2,3.2-1.4c0.6-1.4-0.5-2.2-1.7-2.8
	c-1.4-0.7-2.9-1.3-4.2-2.1c-3.5-2.1-4-6.2-1.1-9.2c3.1-3.2,9.3-2.8,12.1-1.3c0.6,0.3,1.1,4.5,0.5,4.9c-0.4,0.3-0.7-0.1-1.1-0.2
	c-1.6-0.7-3.3-1.2-5.1-1.1c-0.8,0.1-1.5,0.3-1.7,1.3c-0.2,0.9,0.2,1.5,1,1.9c1.3,0.6,2.6,1.1,3.9,1.7c3.2,1.5,4.5,3.7,4.1,7
	c-0.3,3-2.5,5.2-5.6,5.8c-1.6,0.3-3.2,0.5-4.8,0.2C55.7,243.6,55.6,243.5,55.9,238.3z"/>
<path class="st1" d="M40,224.9c0-0.9,0.1-1.8,0-2.7c-0.3-1.9,0.5-2.3,2.3-2.2c3.5,0.3,5.5,2.5,5,5.9c-0.4,2.9-3.3,4.7-6.5,4.1
	c-0.7-0.1-0.8-0.5-0.8-1.1C40,227.6,40,226.3,40,224.9z"/>
<g>
	<path class="st0" d="M86.6,379.2c0,11.2,0,22.4,0,33.6c0,1.7,0,1.7-1.6,1.7c-22.4,0-44.8,0-67.2,0c-1.6,0-1.6,0-1.6-1.7
		c0-22.4,0-44.8,0-67.1c0-1.7,0-1.7,1.8-1.7c22.3,0,44.7,0,67,0c1.8,0,1.8,0,1.8,1.8C86.6,356.9,86.6,368,86.6,379.2z M51.4,408.1
		c9.2,0,18.5,0,27.7,0c0.9,0,1.2-0.1,1.2-1.1c0-18.5,0-37,0-55.6c0-0.9-0.3-1.1-1.2-1.1c-18.5,0-37,0-55.4,0c-1,0-1.2,0.3-1.2,1.2
		c0,18.4,0,36.9,0,55.3c0,1,0.3,1.3,1.3,1.3C33,408.1,42.2,408.1,51.4,408.1z"/>
	<path class="st1" d="M51.4,408.1c-9.2,0-18.4,0-27.6,0c-1,0-1.3-0.2-1.3-1.3c0-18.4,0-36.9,0-55.3c0-0.9,0.2-1.2,1.2-1.2
		c18.5,0,37,0,55.4,0c0.9,0,1.2,0.2,1.2,1.1c0,18.5,0,37,0,55.6c0,1-0.3,1.1-1.2,1.1C69.8,408.1,60.6,408.1,51.4,408.1z M34.6,379.3
		c0,4.9,0,9.8,0,14.7c0,0.8,0.1,1.2,1.1,1.2c5.6,0,11.2,0,16.8,0c0.8,0,1-0.3,1-1c0-0.9-0.1-1.8,0-2.7c0.1-1.1-0.4-1.3-1.3-1.3
		c-3.4,0-6.7,0-10.1,0c-1.2,0-1.6-0.2-1.6-1.5c0.1-8,0-16,0-23.9c0-0.8,0-1.3-1.1-1.3c-1.2,0-2.4,0-3.6,0c-0.9,0-1.2,0.3-1.2,1.2
		C34.6,369.6,34.6,374.4,34.6,379.3z M60.9,376.1c0-0.4,0-0.7-0.1-1.1c-0.2-3.2,0.4-2.7-2.8-2.8c-2.3,0-2.3,0-2.3,2.3
		c0,6.4,0.1,12.9,0,19.3c0,1,0.3,1.4,1.3,1.3c1.1-0.1,2.3-0.1,3.4,0c0.9,0.1,1.2-0.3,1.2-1.2c0-3.6-0.1-7.2,0-10.8
		c0.1-4.2,2.8-6.4,6.1-5.9c0.8,0.1,1-0.2,1-0.9c0-1.2,0-2.4,0-3.5c0-0.8-0.3-1-1-1c-1.1,0-2.1,0.2-3.1,0.6
		C63,373.2,61.9,374.6,60.9,376.1z"/>
	<path class="st0" d="M34.6,379.3c0-4.9,0-9.7,0-14.6c0-0.9,0.3-1.2,1.2-1.2c1.2,0,2.4,0,3.6,0c1,0,1.1,0.5,1.1,1.3c0,8,0,16,0,23.9
		c0,1.3,0.4,1.5,1.6,1.5c3.4-0.1,6.7,0,10.1,0c1,0,1.4,0.2,1.3,1.3c-0.1,0.9,0,1.8,0,2.7c0,0.7-0.2,1-1,1c-5.6,0-11.2,0-16.8,0
		c-0.9,0-1.1-0.4-1.1-1.2C34.6,389.1,34.6,384.2,34.6,379.3z"/>
	<path class="st0" d="M60.9,376.1c1-1.5,2.1-2.8,3.7-3.7c1-0.5,2-0.7,3.1-0.6c0.7,0,1,0.3,1,1c-0.1,1.2,0,2.4,0,3.5
		c0,0.7-0.2,1.1-1,0.9c-3.3-0.4-6,1.7-6.1,5.9c-0.1,3.6,0,7.2,0,10.8c0,0.9-0.2,1.2-1.2,1.2c-1.1-0.1-2.3-0.1-3.4,0
		c-1,0.1-1.3-0.3-1.3-1.3c0-6.4,0-12.9,0-19.3c0-2.3,0-2.3,2.3-2.3c3.2,0,2.7-0.4,2.8,2.8C60.8,375.3,60.9,375.7,60.9,376.1z"/>
</g>
<g>
	<path class="st2" d="M47.9,661.6c9.6,0,19.3,0,28.9,0c1.4,0,2,0.1,1.9,1.9c-1.1,11.3-2,22.7-3,34.1c-0.8,8.6-1.6,17.3-2.4,25.9
		c-0.1,1.1-0.6,1.5-1.5,1.7c-7.6,2.1-15.3,4.2-22.9,6.3c-0.7,0.2-1.4,0.2-2.1,0c-7.6-2.1-15.2-4.2-22.8-6.3
		c-1.1-0.3-1.5-0.7-1.6-1.9c-0.6-7.8-1.3-15.5-2-23.2c-0.7-7.3-1.4-14.7-2-22c-0.5-5.1-0.8-10.2-1.3-15.3c-0.1-1.2,0.4-1.2,1.3-1.2
		c5.8,0,11.7,0,17.5,0C39.8,661.6,43.9,661.6,47.9,661.6z M47.7,674.3c-5.9,0-11.9,0-17.8,0c-1.4,0-1.6,0.3-1.4,1.7
		c0.7,6.7,1.4,13.5,1.9,20.2c0.1,1.4,0.5,1.8,1.9,1.8c6.3-0.1,12.6,0,18.9,0c1.7,0,3.4,0,5.2,0c0.5,0,1.1-0.1,1,0.8
		c-0.3,2.7-0.4,5.3-0.7,8c-0.1,0.6-0.1,1.1-0.9,1.4c-4.2,1.2-8.2,2.8-12.7,0.9c-3.5-1.5-3.7-1.1-4.2-4.8c0-0.4-0.1-0.7-0.1-1.1
		c0-0.9-0.5-1.3-1.4-1.3c-1.8,0-3.7,0-5.5,0c-0.7,0-1.1,0.1-1,1c0.4,3.4,0.7,6.7,0.9,10.1c0.1,0.9,0.4,1.2,1.2,1.4
		c4.4,1.1,8.7,2.3,13,3.5c0.9,0.2,1.7,0.6,2.7,0.3c4.2-1.2,8.3-2.4,12.5-3.4c2-0.5,2.5-1.5,2.6-3.4c0.4-6.5,0.9-12.9,1.5-19.4
		c0.2-1.7-0.1-2-1.7-1.9c-8.2,0.1-16.4,0-24.6,0.1c-1.2,0-1.7-0.3-1.7-1.6c0-1.5-0.2-3-0.5-4.4c-0.4-1.6,0.2-1.8,1.7-1.8
		c8.7,0.1,17.4,0,26,0.1c1.4,0,2-0.3,2.1-1.8c0-1.5,0.1-3,0.3-4.4c0.2-1.4-0.1-2-1.7-1.9C59.5,674.3,53.6,674.3,47.7,674.3z"/>
	<text transform="matrix(1 0 0 1 16.2261 654.5215)" class="st3 st4 st5 st6">HTML</text>
</g>
<g>
	<path class="st2" d="M48.7,812.8c9.9,0,19.8,0,29.7,0c1.6,0,1.9,0.4,1.8,1.9c-1,10.3-2,20.7-2.9,31c-0.7,7.4-1.3,14.8-2,22.2
		c-0.2,2.7-0.5,5.5-0.8,8.2c-0.1,0.8-0.3,1.3-1.2,1.5c-7.9,2.1-15.9,4.3-23.8,6.4c-0.7,0.2-1.4,0.1-2.2-0.1
		c-7.6-2.1-15.2-4.1-22.8-6.1c-1.5-0.4-1.9-1.1-2.1-2.6c-0.8-8.8-1.6-17.6-2.5-26.4c-0.5-5.2-0.9-10.3-1.4-15.5
		c-0.6-6.3-1.1-12.6-1.7-19c-0.1-1.4,0.3-1.6,1.6-1.6C28.5,812.8,38.6,812.8,48.7,812.8z M67.9,825.9c-0.1,0-0.2,0-0.4-0.1
		c-0.2,0-0.5,0-0.7,0c-1.5,0-2.9,0-4.4,0c-1.7,0-3.4,0-5.1,0c-3.2,0-6.4,0-9.5,0c-2,0-3.9,0-5.9,0c-0.7,0-1.5,0-2.2,0
		c-3.7,0-7.3,0-11,0c-0.2,0-0.3,0.1-0.3,0.3c0.3,1.9,0.5,3.7,0.8,5.6c0.2,1.3,0.7,1.9,2.2,1.9c3.8-0.2,7.6-0.1,11.4-0.1c2,0,4,0,6,0
		c-5,2.4-9.9,4.5-14.9,6.6c-3.6,1.5-3.6,1.5-3.3,5.4c0,0.6,0.1,1.2,0,1.8c-0.2,1.7,0.4,2.3,2.2,2.3c7.9-0.1,15.8,0,23.6-0.1
		c1.3,0,1.7,0.3,1.6,1.6c-0.2,2.4-0.3,4.9-0.4,7.3c0,0.5,0.1,1.2-0.6,1.4c-4,0.9-7.8,3.6-12.3,1.5c-1.5-0.7-3.6-0.6-4.6-1.6
		c-1-1-0.7-3.1-0.8-4.7c0-1-0.4-1.3-1.3-1.3c-1.8,0-3.7,0-5.5,0c-0.8,0-1.2,0.2-1.1,1.1c0.4,3.3,0.7,6.6,1,9.8
		c0.1,0.9,0.4,1.2,1.2,1.5c4.7,1.3,9.4,2.7,14,4.1c0.5,0.2,1,0.2,1.6,0.1c4.9-1.4,9.7-2.7,14.6-4c0.9-0.3,1.2-0.7,1.3-1.7
		c0.1-2.3,0.3-4.5,0.5-6.8c0.4-5,0.8-10,1.3-14.9c0.1-1.1-0.3-1.4-1.3-1.4c-2.3,0.1-4.5,0-6.8,0c-3.1,0-6.3,0-9.4,0
		c0.5-0.6,1-0.8,1.6-1c5-2.1,10.1-4.3,15.1-6.4c0.5-0.2,1.4-0.3,1.4-1C67.8,830.8,68.3,828.4,67.9,825.9z"/>
	<g>
		<text transform="matrix(1 0 0 1 24.1948 806.2695)" class="st3 st4 st7 st6">CSS</text>
	</g>
</g>
<g>
	<path class="st2" d="M50.3,1035.3c-2.4,0.9-4.8,0.9-7.2,0c-0.7-0.3-1.5-0.5-2.3-0.6c-0.7-0.4-1.5-0.5-2.3-0.7
		c-1.5-0.5-2.9-0.9-4.4-1.2c-0.9-0.4-1.8-0.6-2.8-0.8c-0.7-0.2-1.5-0.4-2.2-0.6c-1.6-0.5-3.1-1-4.8-1.3c-0.8-0.2-1.6-0.5-2.5-0.7
		c-0.2-0.1-0.4-0.2-0.5-0.3c-0.1-0.7-0.1-1.5-0.2-2.2c0.1-0.8-0.1-1.7-0.2-2.5c0.1-0.8-0.1-1.5-0.2-2.3c0.1-0.8,0-1.7-0.2-2.5
		c0-0.8,0.1-1.5-0.2-2.3c-0.1-2.2-0.3-4.3-0.6-6.5c0-0.2-0.1-0.3-0.1-0.5c0-0.8,0-1.7-0.2-2.5c0-0.8,0-1.5-0.2-2.2
		c-0.1-0.8,0-1.7-0.2-2.5c-0.1-0.7-0.1-1.5-0.2-2.2c-0.1-0.8-0.2-1.7-0.2-2.5c-0.1-0.7-0.1-1.5-0.2-2.2c-0.2-2.3-0.3-4.7-0.7-7
		c-0.1-0.8-0.1-1.6-0.2-2.4c0-0.6,0.1-1.2-0.2-1.8c0-0.1,0-0.3,0-0.4c0-0.8,0-1.7-0.2-2.5c0-0.8,0-1.5-0.2-2.3c0-0.8,0-1.7-0.2-2.5
		c0-0.8,0.1-1.5-0.2-2.3c0-0.8,0.1-1.7-0.2-2.5c-0.1-0.7,0.1-1.5-0.2-2.2c-0.1-0.8-0.1-1.5-0.2-2.3c-0.1-1.7-0.1-1.7,1.2-1.8
		c0.8,0,1.7,0,2.5,0c0.8,0,1.5,0,2.3,0c2.4,0,4.8,0,7.2,0c0.8,0,1.5,0,2.3,0c0.8,0,1.7,0,2.5,0c2.3,0,4.7,0,7,0c0.8,0,1.5,0,2.3,0
		c2.4,0,4.8,0,7.2,0c0.8,0,1.5,0,2.3,0c0.8,0,1.7,0,2.5,0c2.3,0,4.7,0,7,0c0.8,0,1.5,0,2.3,0c2.4,0,4.8,0,7.2,0c0.8,0,1.5,0,2.3,0
		c0.8,0,1.7,0,2.5,0c1.4,0.1,1.3,0.1,1.2,1.5c-0.1,1.6-0.2,3.2-0.3,4.8c-0.3,0.8-0.2,1.7-0.2,2.5c-0.3,0.7-0.2,1.5-0.2,2.3
		c-0.3,0.8-0.3,1.6-0.2,2.5c-0.2,0.7-0.3,1.5-0.2,2.3c-0.2,0.8-0.3,1.6-0.2,2.5c0,0.1,0,0.3,0,0.4c-0.2,0.4-0.2,0.7-0.1,1.1
		c0,0.1,0,0.3,0,0.4c0,0.1,0,0.1,0,0.2c-0.1,0.8-0.1,1.6-0.2,2.4c-0.3,3.2-0.6,6.4-0.9,9.5c-0.1,0.7-0.1,1.5-0.2,2.2
		c0,0.6-0.1,1.2-0.1,1.8c-0.4,1-0.2,2-0.3,3c-0.2,0.7-0.1,1.5-0.2,2.2c-0.3,0.8-0.2,1.6-0.2,2.5c-0.3,1.5-0.4,3-0.4,4.5
		c-0.4,2.4-0.5,4.8-0.6,7.2c-0.1,0.7-0.3,1.5-0.2,2.3c-0.1,0.8-0.3,1.6-0.2,2.5c-0.1,0.7-0.1,1.5-0.2,2.2c-0.3,0.1-0.5,0.3-0.8,0.4
		c-0.8,0.1-1.5,0.3-2.3,0.6c-1.7,0.4-3.4,0.8-5,1.4c-0.9,0.2-1.8,0.2-2.5,0.9c-0.7,0.1-1.3,0.2-2,0.3c-1.5,0.4-3,0.9-4.5,1.3
		c-0.9,0.1-1.7,0.3-2.5,0.7C51.8,1034.8,51.1,1035,50.3,1035.3z M46.7,1022.7c5-1.4,10.1-2.8,15.1-4.1c0.5-0.1,0.6-0.3,0.7-0.8
		c0.6-7.2,1.3-14.5,2-21.7c0.1-1.1-0.1-1.4-1.3-1.4c-4.5,0.1-9,0-13.5,0c-1,0-2-0.1-3,0.1c-0.4,0-0.8-0.1-1.2-0.1
		c-2.2,0-4.4,0-6.5,0c-0.5,0-0.8-0.1-0.8-0.7c0.4-3.5,0.7-6.9,1-10.4c0.1-0.7,0.3-1,1-1c2.3,0,4.5-0.1,6.8-0.2
		c2.8,0.2,5.5,0.3,8.3,0.4c0.7,0,0.9,0.3,1,1c0.1,2,0.4,4,0.5,6.1c0.1,0.7,0.3,1,1.1,1c1.9-0.1,3.8-0.1,5.6,0c0.9,0,1.2-0.3,1.1-1.1
		c-0.5-4.9-0.9-9.8-1.3-14.7c-0.1-0.6-0.3-0.7-0.8-0.7c-5.1,0-10.3,0-15.4,0c-4.6,0-9.2,0-13.9,0c-0.5,0-0.8,0.1-0.8,0.7
		c-0.2,2.1-0.4,4.1-0.6,6.1c-0.4,3.8-0.7,7.5-1,11.3c-0.3,3-0.5,6.1-0.8,9.1c0,0.5-0.1,0.9,0.7,0.9c5.4,0,10.8,0,16.2-0.1
		c0.4,0,0.8,0,1.2,0c2.5,0,5,0,7.4,0c0.4,0,0.8-0.1,0.7,0.6c-0.3,2.8-0.6,5.7-0.8,8.5c-0.1,0.7-0.3,1-0.9,1.1
		c-2.6,0.7-5.1,1.4-7.7,2.1c-2.7-0.7-5.3-1.4-8-2.1c-0.6-0.1-0.8-0.4-0.8-1c-0.1-1.5-0.3-3-0.4-4.5c0-0.8-0.4-0.9-1-0.9
		c-1.9,0-3.8,0.1-5.7,0c-0.8,0-1,0.2-0.9,1c0.3,3.4,0.6,6.8,0.9,10.2c0.1,0.8,0.3,1,1,1.2c2.3,0.6,4.6,1.3,6.9,1.9
		C41.3,1021.3,44,1022.2,46.7,1022.7z"/>
	<g>
		<text transform="matrix(1 0 0 1 33.6187 958.6094)" class="st3 st4 st7 st6">JS</text>
	</g>
</g>
<path class="st8" d="M1067.7,87.5H171.3c-5.7,0-10.3-4.6-10.3-10.3v0c0-5.7,4.6-10.3,10.3-10.3h896.5c5.7,0,10.3,4.6,10.3,10.3v0
	C1078,82.9,1073.4,87.5,1067.7,87.5z"/>
<path class="st8" d="M1067.7,241.3H171.3c-5.7,0-10.3-4.6-10.3-10.3v0c0-5.7,4.6-10.3,10.3-10.3h896.5c5.7,0,10.3,4.6,10.3,10.3v0
	C1078,236.7,1073.4,241.3,1067.7,241.3z"/>
<path class="st8" d="M1067.7,389.4H171.3c-5.7,0-10.3-4.6-10.3-10.3v0c0-5.7,4.6-10.3,10.3-10.3h896.5c5.7,0,10.3,4.6,10.3,10.3v0
	C1078,384.8,1073.4,389.4,1067.7,389.4z"/>
<path class="st8" d="M1067.7,545.9H171.3c-5.7,0-10.3-4.6-10.3-10.3l0,0c0-5.7,4.6-10.3,10.3-10.3h896.5c5.7,0,10.3,4.6,10.3,10.3
	l0,0C1078,541.3,1073.4,545.9,1067.7,545.9z"/>
<path class="st8" d="M1067.7,695.9H171.3c-5.7,0-10.3-4.6-10.3-10.3l0,0c0-5.7,4.6-10.3,10.3-10.3h896.5c5.7,0,10.3,4.6,10.3,10.3
	l0,0C1078,691.3,1073.4,695.9,1067.7,695.9z"/>
<path class="st8" d="M1067.7,847.9H171.3c-5.7,0-10.3-4.6-10.3-10.3l0,0c0-5.7,4.6-10.3,10.3-10.3h896.5c5.7,0,10.3,4.6,10.3,10.3
	l0,0C1078,843.3,1073.4,847.9,1067.7,847.9z"/>
<path class="st8" d="M1067.7,999.7H171.3c-5.7,0-10.3-4.6-10.3-10.3v0c0-5.7,4.6-10.3,10.3-10.3h896.5c5.7,0,10.3,4.6,10.3,10.3v0
	C1078,995.1,1073.4,999.7,1067.7,999.7z"/>
<linearGradient id="SVGID_1_" gradientUnits="userSpaceOnUse" x1="157.5823" y1="77.187" x2="896.2154" y2="77.187">
	<stop  offset="0" style="stop-color:#833998"/>
	<stop  offset="0.4832" style="stop-color:#F61A1C"/>
	<stop  offset="1" style="stop-color:#F9B045"/>
</linearGradient>
<path class="st9" d="M885.9,87.5H167.9c-5.7,0-10.3-4.6-10.3-10.3v0c0-5.7,4.6-10.3,10.3-10.3h718.1c5.7,0,10.3,4.6,10.3,10.3v0
	C896.2,82.9,891.6,87.5,885.9,87.5z"/>
<linearGradient id="SVGID_2_" gradientUnits="userSpaceOnUse" x1="157.5823" y1="230.9777" x2="824.6935" y2="230.9777">
	<stop  offset="0" style="stop-color:#833998"/>
	<stop  offset="0.4832" style="stop-color:#F61A1C"/>
	<stop  offset="1" style="stop-color:#F9B045"/>
</linearGradient>
<path class="st10" d="M814.4,241.3H167.9c-5.7,0-10.3-4.6-10.3-10.3v0c0-5.7,4.6-10.3,10.3-10.3h646.6c5.7,0,10.3,4.6,10.3,10.3v0
	C824.7,236.7,820.1,241.3,814.4,241.3z"/>
<linearGradient id="SVGID_3_" gradientUnits="userSpaceOnUse" x1="157.5823" y1="379.1695" x2="846.8312" y2="379.1695">
	<stop  offset="0" style="stop-color:#833998"/>
	<stop  offset="0.4832" style="stop-color:#F61A1C"/>
	<stop  offset="1" style="stop-color:#F9B045"/>
</linearGradient>
<path class="st11" d="M836.6,389.4H167.9c-5.7,0-10.3-4.6-10.3-10.3v0c0-5.7,4.6-10.3,10.3-10.3h668.7c5.7,0,10.3,4.6,10.3,10.3v0
	C846.8,384.8,842.2,389.4,836.6,389.4z"/>
<linearGradient id="SVGID_4_" gradientUnits="userSpaceOnUse" x1="157.5823" y1="535.634" x2="564.1498" y2="535.634">
	<stop  offset="0" style="stop-color:#833998"/>
	<stop  offset="0.4832" style="stop-color:#F61A1C"/>
	<stop  offset="1" style="stop-color:#F9B045"/>
</linearGradient>
<path class="st12" d="M553.9,545.9h-386c-5.7,0-10.3-4.6-10.3-10.3l0,0c0-5.7,4.6-10.3,10.3-10.3h386c5.7,0,10.3,4.6,10.3,10.3l0,0
	C564.1,541.3,559.5,545.9,553.9,545.9z"/>
<linearGradient id="SVGID_5_" gradientUnits="userSpaceOnUse" x1="157.5823" y1="685.6056" x2="474.7475" y2="685.6056">
	<stop  offset="0" style="stop-color:#833998"/>
	<stop  offset="0.4832" style="stop-color:#F61A1C"/>
	<stop  offset="1" style="stop-color:#F9B045"/>
</linearGradient>
<path class="st13" d="M464.5,695.9H167.9c-5.7,0-10.3-4.6-10.3-10.3l0,0c0-5.7,4.6-10.3,10.3-10.3h296.6c5.7,0,10.3,4.6,10.3,10.3
	l0,0C474.7,691.3,470.1,695.9,464.5,695.9z"/>
<linearGradient id="SVGID_6_" gradientUnits="userSpaceOnUse" x1="157.5823" y1="837.6616" x2="504.5483" y2="837.6616">
	<stop  offset="0" style="stop-color:#833998"/>
	<stop  offset="0.4832" style="stop-color:#F61A1C"/>
	<stop  offset="1" style="stop-color:#F9B045"/>
</linearGradient>
<path class="st14" d="M494.3,847.9H167.9c-5.7,0-10.3-4.6-10.3-10.3l0,0c0-5.7,4.6-10.3,10.3-10.3h326.4c5.7,0,10.3,4.6,10.3,10.3
	l0,0C504.5,843.3,499.9,847.9,494.3,847.9z"/>
<linearGradient id="SVGID_7_" gradientUnits="userSpaceOnUse" x1="157.5823" y1="989.3751" x2="427.9178" y2="989.3751">
	<stop  offset="0" style="stop-color:#833998"/>
	<stop  offset="0.4832" style="stop-color:#F61A1C"/>
	<stop  offset="1" style="stop-color:#F9B045"/>
</linearGradient>
<path class="st15" d="M417.6,999.7H167.9c-5.7,0-10.3-4.6-10.3-10.3v-0.2c0-5.7,4.6-10.3,10.3-10.3h249.8c5.7,0,10.3,4.6,10.3,10.3
	v0.2C427.9,995.1,423.3,999.7,417.6,999.7z"/>
<g>
	<path class="st16" d="M51.3,564.8c-10.6,0-21.3,0-31.9,0c-0.8,0-1.1-0.2-1.1-1c0-20.8,0-41.7,0-62.5c0-0.9,0.3-1.1,1.1-1.1
		c21.2,0,42.5,0,63.7,0c0.9,0,1.2,0.2,1.2,1.2c0,20.8,0,41.5,0,62.3c0,1-0.3,1.1-1.2,1.1C72.6,564.8,62,564.8,51.3,564.8z M51.4,503
		c-9.7,0-19.4,0-29.1,0c-1.5,0-1.3-0.1-1.3,1.3c0,18.8,0,37.6,0,56.4c0,1.3,0,1.3,1.3,1.3c19.4,0,38.8,0,58.2,0c1,0,1.3-0.2,1.3-1.2
		c0-18.8,0-37.7,0-56.5c0-1-0.2-1.3-1.2-1.3C70.8,503,61.1,503,51.4,503z"/>
	<path class="st1" d="M51.4,503c9.7,0,19.4,0,29,0c1.1,0,1.2,0.3,1.2,1.3c0,18.8,0,37.7,0,56.5c0,1.1-0.3,1.2-1.3,1.2
		c-19.4,0-38.8,0-58.2,0c-1.3,0-1.3,0-1.3-1.3c0-18.8,0-37.6,0-56.4c0-1.4-0.2-1.3,1.3-1.3C32,503,41.7,503,51.4,503z M71.3,530.7
		c0-5.3,0-9.7,0-14.2c0-0.8-0.2-1.1-1-1c-1,0.1-2.1,0-3.1,0c-0.7,0-0.9,0.2-0.9,0.9c0,1.8,0,3.6,0,5.4c0,0.9-0.2,1.1-1.1,1.1
		c-5.1-0.1-8.9,2.4-10.5,6.9c-1.2,3.4-1.1,6.7,0.2,10c1,2.6,2.9,4.3,5.6,5.1c3.6,1.1,7,0.5,10.4-0.9c0.4-0.2,0.5-0.4,0.5-0.8
		C71.2,538.9,71.4,534.4,71.3,530.7z M41.3,533.7c0.2,0.3,0.3,0.5,0.4,0.7c1.6,3.3,3.2,6.7,4.7,10c0.3,0.7,0.7,0.9,1.5,0.9
		c1.2-0.1,2.4-0.1,3.5,0c0.9,0,0.9-0.3,0.6-1c-1.8-3.5-3.7-7.1-5.5-10.7c-0.6-1.3-1.7-2.5-1.7-3.8c0-1.2,1.1-2.5,1.7-3.7
		c1.7-3.2,3.4-6.5,5.1-9.7c0.4-0.7,0.3-1-0.6-1c-0.6,0-1.3,0.1-1.9,0c-1.7-0.3-2.5,0.4-3.1,2c-1.3,3.1-2.8,6.1-4.2,9.2
		c-0.1-0.2-0.3-0.4-0.3-0.6c-1.5-3.2-3.1-6.4-4.5-9.7c-0.3-0.7-0.7-1-1.5-0.9c-1.1,0.1-2.2,0-3.3,0c-1.1,0-1.1,0-0.6,1
		c2.2,4.3,4.3,8.5,6.5,12.8c0.4,0.8,0.4,1.3,0,2.1c-2.3,4.3-4.5,8.7-6.8,13c-0.3,0.7-0.3,0.9,0.5,0.8c1.1,0,2.2-0.1,3.3,0
		c0.8,0,1.2-0.2,1.5-0.9C38,540.9,39.6,537.4,41.3,533.7z"/>
	<path class="st0" d="M71.3,530.7c0.1,3.6-0.1,8.1,0.1,12.6c0,0.4-0.1,0.6-0.5,0.8c-3.4,1.4-6.8,2-10.4,0.9
		c-2.7-0.8-4.5-2.6-5.6-5.1c-1.3-3.3-1.4-6.7-0.2-10c1.6-4.5,5.4-7,10.5-6.9c0.9,0,1.1-0.2,1.1-1.1c-0.1-1.8,0-3.6,0-5.4
		c0-0.7,0.2-0.9,0.9-0.9c1,0,2.1,0.1,3.1,0c0.8,0,1,0.2,1,1C71.3,521,71.3,525.5,71.3,530.7z M66.3,534.2c0-2,0-4,0-6
		c0-0.7-0.2-1-0.9-1.1c-2.9-0.3-5.2,1.3-6,4.1c-0.6,2-0.6,4-0.1,6c0.7,3,3,4.5,6.1,4.1c0.7-0.1,1-0.3,1-1.1
		C66.3,538.2,66.3,536.2,66.3,534.2z"/>
	<path class="st0" d="M41.3,533.7c-1.7,3.7-3.4,7.2-4.9,10.7c-0.3,0.7-0.7,1-1.5,0.9c-1.1-0.1-2.2,0-3.3,0c-0.8,0-0.8-0.2-0.5-0.8
		c2.3-4.3,4.5-8.7,6.8-13c0.4-0.8,0.4-1.4,0-2.1c-2.2-4.2-4.3-8.5-6.5-12.8c-0.5-1-0.5-1,0.6-1c1.1,0,2.2,0,3.3,0
		c0.8,0,1.2,0.2,1.5,0.9c1.5,3.2,3,6.4,4.5,9.7c0.1,0.2,0.2,0.3,0.3,0.6c1.5-3.1,3-6.1,4.2-9.2c0.6-1.6,1.5-2.2,3.1-2
		c0.6,0.1,1.3,0.1,1.9,0c0.9-0.1,1,0.2,0.6,1c-1.7,3.2-3.4,6.5-5.1,9.7c-0.6,1.2-1.7,2.5-1.7,3.7c0,1.3,1.1,2.5,1.7,3.8
		c1.8,3.6,3.7,7.1,5.5,10.7c0.4,0.7,0.4,1-0.6,1c-1.2-0.1-2.4-0.1-3.5,0c-0.7,0-1.2-0.2-1.5-0.9c-1.6-3.4-3.2-6.7-4.7-10
		C41.6,534.2,41.5,534,41.3,533.7z"/>
	<path class="st1" d="M66.3,534.2c0,2,0,4,0,5.9c0,0.8-0.3,1-1,1.1c-3.1,0.4-5.3-1.1-6.1-4.1c-0.5-2-0.5-4,0.1-6
		c0.8-2.8,3.1-4.3,6-4.1c0.7,0.1,1,0.4,0.9,1.1C66.3,530.2,66.3,532.2,66.3,534.2z"/>
</g>
</svg>
